<mxfile host="65bd71144e">
    <diagram id="Jwft0lW1LdbbYtaQRuda" name="Page-1">
        <mxGraphModel dx="1972" dy="667" grid="1" gridSize="10" guides="1" tooltips="1" connect="1" arrows="1" fold="1" page="1" pageScale="1" pageWidth="827" pageHeight="1169" math="0" shadow="0">
            <root>
                <mxCell id="0"/>
                <mxCell id="1" parent="0"/>
                <mxCell id="7" value="" style="edgeStyle=none;html=1;fontColor=#000000;" edge="1" parent="1" source="3" target="6">
                    <mxGeometry relative="1" as="geometry"/>
                </mxCell>
                <mxCell id="21" value="" style="edgeStyle=none;html=1;fontColor=#000000;startArrow=none;" edge="1" parent="1" source="32" target="20">
                    <mxGeometry relative="1" as="geometry"/>
                </mxCell>
                <mxCell id="23" value="" style="edgeStyle=none;html=1;fontColor=#000000;" edge="1" parent="1" source="3" target="22">
                    <mxGeometry relative="1" as="geometry"/>
                </mxCell>
                <mxCell id="3" value="&lt;font color=&quot;#000000&quot;&gt;APP&lt;/font&gt;" style="whiteSpace=wrap;html=1;fillColor=#fff2cc;strokeColor=#d6b656;gradientColor=#ffd966;" vertex="1" parent="1">
                    <mxGeometry x="354" y="30" width="120" height="60" as="geometry"/>
                </mxCell>
                <mxCell id="9" value="" style="edgeStyle=none;html=1;fontColor=#000000;" edge="1" parent="1" source="6" target="8">
                    <mxGeometry relative="1" as="geometry"/>
                </mxCell>
                <mxCell id="11" value="" style="edgeStyle=none;html=1;fontColor=#000000;" edge="1" parent="1" source="6" target="10">
                    <mxGeometry relative="1" as="geometry"/>
                </mxCell>
                <mxCell id="14" value="" style="edgeStyle=none;html=1;fontColor=#000000;" edge="1" parent="1" source="6" target="10">
                    <mxGeometry relative="1" as="geometry"/>
                </mxCell>
                <mxCell id="15" value="" style="edgeStyle=none;html=1;fontColor=#000000;" edge="1" parent="1" source="6" target="10">
                    <mxGeometry relative="1" as="geometry"/>
                </mxCell>
                <mxCell id="17" value="" style="edgeStyle=none;html=1;fontColor=#000000;" edge="1" parent="1" source="6" target="16">
                    <mxGeometry relative="1" as="geometry"/>
                </mxCell>
                <mxCell id="19" value="" style="edgeStyle=none;html=1;fontColor=#000000;" edge="1" parent="1" source="6" target="18">
                    <mxGeometry relative="1" as="geometry"/>
                </mxCell>
                <mxCell id="6" value="&lt;font color=&quot;#000000&quot;&gt;Header / static section&lt;/font&gt;" style="whiteSpace=wrap;html=1;fillColor=#fff2cc;strokeColor=#d6b656;gradientColor=#ffd966;" vertex="1" parent="1">
                    <mxGeometry x="60" y="190" width="120" height="60" as="geometry"/>
                </mxCell>
                <mxCell id="8" value="&lt;font color=&quot;#000000&quot;&gt;Tiltle&lt;/font&gt;" style="whiteSpace=wrap;html=1;fillColor=#fff2cc;strokeColor=#d6b656;gradientColor=#ffd966;" vertex="1" parent="1">
                    <mxGeometry x="-120" y="360" width="120" height="60" as="geometry"/>
                </mxCell>
                <mxCell id="13" value="" style="edgeStyle=none;html=1;fontColor=#000000;" edge="1" parent="1" source="10" target="12">
                    <mxGeometry relative="1" as="geometry"/>
                </mxCell>
                <mxCell id="10" value="&lt;font color=&quot;#000000&quot;&gt;Searchbar&lt;/font&gt;" style="whiteSpace=wrap;html=1;fillColor=#fff2cc;strokeColor=#d6b656;gradientColor=#ffd966;" vertex="1" parent="1">
                    <mxGeometry x="20" y="360" width="120" height="60" as="geometry"/>
                </mxCell>
                <mxCell id="12" value="&lt;font color=&quot;#000000&quot;&gt;searchbutton&lt;/font&gt;" style="whiteSpace=wrap;html=1;fillColor=#fff2cc;strokeColor=#d6b656;gradientColor=#ffd966;" vertex="1" parent="1">
                    <mxGeometry x="20" y="480" width="120" height="60" as="geometry"/>
                </mxCell>
                <mxCell id="16" value="&lt;font color=&quot;#000000&quot;&gt;topic drop down&lt;/font&gt;" style="whiteSpace=wrap;html=1;fillColor=#fff2cc;strokeColor=#d6b656;gradientColor=#ffd966;" vertex="1" parent="1">
                    <mxGeometry x="160" y="360" width="120" height="60" as="geometry"/>
                </mxCell>
                <mxCell id="18" value="&lt;font color=&quot;#000000&quot;&gt;logo&lt;/font&gt;" style="whiteSpace=wrap;html=1;fillColor=#fff2cc;strokeColor=#d6b656;gradientColor=#ffd966;" vertex="1" parent="1">
                    <mxGeometry x="-130" y="250" width="120" height="60" as="geometry"/>
                </mxCell>
                <mxCell id="25" value="" style="edgeStyle=none;html=1;fontColor=#000000;" edge="1" parent="1" source="20" target="24">
                    <mxGeometry relative="1" as="geometry"/>
                </mxCell>
                <mxCell id="20" value="&lt;font color=&quot;#000000&quot;&gt;serach results section&lt;/font&gt;" style="whiteSpace=wrap;html=1;fillColor=#d5e8d4;strokeColor=#82b366;gradientColor=#97d077;" vertex="1" parent="1">
                    <mxGeometry x="354" y="420" width="120" height="60" as="geometry"/>
                </mxCell>
                <mxCell id="27" value="" style="edgeStyle=none;html=1;fontColor=#000000;" edge="1" parent="1" source="22" target="26">
                    <mxGeometry relative="1" as="geometry"/>
                </mxCell>
                <mxCell id="29" value="" style="edgeStyle=none;html=1;fontColor=#000000;" edge="1" parent="1" source="22" target="28">
                    <mxGeometry relative="1" as="geometry"/>
                </mxCell>
                <mxCell id="22" value="&lt;font color=&quot;#000000&quot;&gt;detail video&lt;/font&gt;" style="whiteSpace=wrap;html=1;fillColor=#dae8fc;strokeColor=#6c8ebf;gradientColor=#7ea6e0;" vertex="1" parent="1">
                    <mxGeometry x="570" y="190" width="120" height="60" as="geometry"/>
                </mxCell>
                <mxCell id="24" value="&lt;font color=&quot;#000000&quot;&gt;video preview(s)&lt;/font&gt;" style="whiteSpace=wrap;html=1;fillColor=#d5e8d4;strokeColor=#82b366;gradientColor=#97d077;" vertex="1" parent="1">
                    <mxGeometry x="354" y="540" width="120" height="60" as="geometry"/>
                </mxCell>
                <mxCell id="26" value="&lt;font color=&quot;#000000&quot;&gt;one video&lt;/font&gt;" style="whiteSpace=wrap;html=1;fillColor=#dae8fc;strokeColor=#6c8ebf;gradientColor=#7ea6e0;" vertex="1" parent="1">
                    <mxGeometry x="570" y="300" width="120" height="60" as="geometry"/>
                </mxCell>
                <mxCell id="28" value="&lt;font color=&quot;#000000&quot;&gt;description&lt;/font&gt;" style="whiteSpace=wrap;html=1;fillColor=#dae8fc;strokeColor=#6c8ebf;gradientColor=#7ea6e0;" vertex="1" parent="1">
                    <mxGeometry x="740" y="240" width="120" height="60" as="geometry"/>
                </mxCell>
                <mxCell id="31" value="&lt;font color=&quot;#000000&quot;&gt;Home&lt;br&gt;(visible on all pages)&lt;/font&gt;" style="ellipse;whiteSpace=wrap;html=1;fillColor=#f5f5f5;gradientColor=#b3b3b3;strokeColor=#666666;" vertex="1" parent="1">
                    <mxGeometry x="180" y="120" width="150" height="40" as="geometry"/>
                </mxCell>
                <mxCell id="32" value="&lt;font color=&quot;#000000&quot;&gt;after search&lt;/font&gt;" style="ellipse;whiteSpace=wrap;html=1;fillColor=#f5f5f5;gradientColor=#b3b3b3;strokeColor=#666666;" vertex="1" parent="1">
                    <mxGeometry x="339" y="240" width="150" height="40" as="geometry"/>
                </mxCell>
                <mxCell id="33" value="" style="edgeStyle=none;html=1;fontColor=#000000;endArrow=none;" edge="1" parent="1" source="3" target="32">
                    <mxGeometry relative="1" as="geometry">
                        <mxPoint x="414" y="90" as="sourcePoint"/>
                        <mxPoint x="414" y="420" as="targetPoint"/>
                    </mxGeometry>
                </mxCell>
                <mxCell id="35" value="&lt;font color=&quot;#000000&quot;&gt;after specific video was chosen&lt;/font&gt;" style="ellipse;whiteSpace=wrap;html=1;fillColor=#f5f5f5;gradientColor=#b3b3b3;strokeColor=#666666;" vertex="1" parent="1">
                    <mxGeometry x="450" y="120" width="150" height="40" as="geometry"/>
                </mxCell>
            </root>
        </mxGraphModel>
    </diagram>
</mxfile>